<svg width="400" height="400" viewBox="0 0 400 400" fill="none" xmlns="http://www.w3.org/2000/svg">
<rect width="400" height="400" fill="#F3F4F6"/>
<path d="M200 150C183.431 150 170 163.431 170 180V220C170 236.569 183.431 250 200 250C216.569 250 230 236.569 230 220V180C230 163.431 216.569 150 200 150Z" fill="#9CA3AF"/>
<path d="M160 200C160 177.909 177.909 160 200 160C222.091 160 240 177.909 240 200C240 222.091 222.091 240 200 240C177.909 240 160 222.091 160 200ZM200 170C183.431 170 170 183.431 170 200C170 216.569 183.431 230 200 230C216.569 230 230 216.569 230 200C230 183.431 216.569 170 200 170Z" fill="#6B7280"/>
<text x="200" y="280" text-anchor="middle" fill="#6B7280" font-family="Arial, sans-serif" font-size="14">No Image Available</text>
</svg>

